<mxfile host="app.diagrams.net" modified="2023-03-08T09:37:19.371Z" agent="5.0 (Windows)" etag="ysvo5Zrwdu1ljaqkWZs4" version="21.0.2" type="github">
  <diagram name="Strona-1" id="NvSBL353j5LD3VOjDMWp">
    <mxGraphModel dx="1434" dy="782" grid="1" gridSize="10" guides="1" tooltips="1" connect="1" arrows="1" fold="1" page="1" pageScale="1" pageWidth="827" pageHeight="1169" math="0" shadow="0">
      <root>
        <mxCell id="0" />
        <mxCell id="1" parent="0" />
        <mxCell id="fB6no1yBcb6r4u6NiXnS-1" value="&lt;font style=&quot;font-size: 24px;&quot;&gt;Stop&lt;/font&gt;" style="ellipse;whiteSpace=wrap;html=1;" vertex="1" parent="1">
          <mxGeometry x="350" y="690" width="120" height="80" as="geometry" />
        </mxCell>
        <mxCell id="fB6no1yBcb6r4u6NiXnS-5" style="edgeStyle=orthogonalEdgeStyle;rounded=0;orthogonalLoop=1;jettySize=auto;html=1;" edge="1" parent="1" source="fB6no1yBcb6r4u6NiXnS-2" target="fB6no1yBcb6r4u6NiXnS-4">
          <mxGeometry relative="1" as="geometry" />
        </mxCell>
        <mxCell id="fB6no1yBcb6r4u6NiXnS-2" value="&lt;font style=&quot;font-size: 24px;&quot;&gt;Start&lt;/font&gt;" style="ellipse;whiteSpace=wrap;html=1;" vertex="1" parent="1">
          <mxGeometry x="350" y="20" width="120" height="80" as="geometry" />
        </mxCell>
        <mxCell id="fB6no1yBcb6r4u6NiXnS-7" style="edgeStyle=orthogonalEdgeStyle;rounded=0;orthogonalLoop=1;jettySize=auto;html=1;entryX=0.5;entryY=0;entryDx=0;entryDy=0;" edge="1" parent="1" source="fB6no1yBcb6r4u6NiXnS-4" target="fB6no1yBcb6r4u6NiXnS-6">
          <mxGeometry relative="1" as="geometry" />
        </mxCell>
        <mxCell id="fB6no1yBcb6r4u6NiXnS-4" value="&lt;div&gt;&lt;font style=&quot;font-size: 24px;&quot;&gt;Pobierz date dzisiejsza = a&lt;br&gt;&lt;/font&gt;&lt;/div&gt;&lt;div&gt;&lt;font style=&quot;font-size: 24px;&quot;&gt;Pobierz date urodzenia uzytkownika = b&lt;br&gt;&lt;/font&gt;&lt;/div&gt;" style="rounded=0;whiteSpace=wrap;html=1;" vertex="1" parent="1">
          <mxGeometry x="300" y="160" width="220" height="130" as="geometry" />
        </mxCell>
        <mxCell id="fB6no1yBcb6r4u6NiXnS-6" value="&lt;font style=&quot;font-size: 24px;&quot;&gt;a-b=&lt;/font&gt;&lt;font style=&quot;font-size: 24px;&quot;&gt;a&amp;gt;18&lt;/font&gt;" style="rhombus;whiteSpace=wrap;html=1;" vertex="1" parent="1">
          <mxGeometry x="332.5" y="340" width="155" height="160" as="geometry" />
        </mxCell>
        <mxCell id="fB6no1yBcb6r4u6NiXnS-11" style="edgeStyle=orthogonalEdgeStyle;rounded=0;orthogonalLoop=1;jettySize=auto;html=1;entryX=0;entryY=0.5;entryDx=0;entryDy=0;" edge="1" parent="1" source="fB6no1yBcb6r4u6NiXnS-8" target="fB6no1yBcb6r4u6NiXnS-6">
          <mxGeometry relative="1" as="geometry" />
        </mxCell>
        <mxCell id="fB6no1yBcb6r4u6NiXnS-13" style="edgeStyle=orthogonalEdgeStyle;rounded=0;orthogonalLoop=1;jettySize=auto;html=1;entryX=0;entryY=0.5;entryDx=0;entryDy=0;" edge="1" parent="1" source="fB6no1yBcb6r4u6NiXnS-8" target="fB6no1yBcb6r4u6NiXnS-1">
          <mxGeometry relative="1" as="geometry">
            <Array as="points">
              <mxPoint x="150" y="730" />
            </Array>
          </mxGeometry>
        </mxCell>
        <mxCell id="fB6no1yBcb6r4u6NiXnS-8" value="Nie jestes pełnoletni" style="rounded=0;whiteSpace=wrap;html=1;" vertex="1" parent="1">
          <mxGeometry x="90" y="390" width="120" height="60" as="geometry" />
        </mxCell>
        <mxCell id="fB6no1yBcb6r4u6NiXnS-12" style="edgeStyle=orthogonalEdgeStyle;rounded=0;orthogonalLoop=1;jettySize=auto;html=1;entryX=1;entryY=0.5;entryDx=0;entryDy=0;" edge="1" parent="1" source="fB6no1yBcb6r4u6NiXnS-9" target="fB6no1yBcb6r4u6NiXnS-6">
          <mxGeometry relative="1" as="geometry" />
        </mxCell>
        <mxCell id="fB6no1yBcb6r4u6NiXnS-14" style="edgeStyle=orthogonalEdgeStyle;rounded=0;orthogonalLoop=1;jettySize=auto;html=1;entryX=1;entryY=0.5;entryDx=0;entryDy=0;" edge="1" parent="1" source="fB6no1yBcb6r4u6NiXnS-9" target="fB6no1yBcb6r4u6NiXnS-1">
          <mxGeometry relative="1" as="geometry">
            <Array as="points">
              <mxPoint x="680" y="730" />
            </Array>
          </mxGeometry>
        </mxCell>
        <mxCell id="fB6no1yBcb6r4u6NiXnS-9" value="Jesteś pełoletni" style="rounded=0;whiteSpace=wrap;html=1;" vertex="1" parent="1">
          <mxGeometry x="610" y="390" width="120" height="60" as="geometry" />
        </mxCell>
      </root>
    </mxGraphModel>
  </diagram>
</mxfile>
